<svg id="c2814247-6c14-4c55-ac6c-0c75f246bd45" data-name="Designs" xmlns="http://www.w3.org/2000/svg" viewBox="0 0 681.32 129.35"><title>panals life</title><g id="43d2c3a7-a53e-442a-a2df-c5345bf52c52" data-name="panals life"><path d="M295,549.41a24,24,0,0,1,9.49,10.08,33.23,33.23,0,0,1,3.38,15.41v36H286.72V578.27q0-6.5-3.05-9.88a10.73,10.73,0,0,0-8.38-3.38,12.43,12.43,0,0,0-6,1.63,21.11,21.11,0,0,0-5.72,4.75V610.9H242.52v-63h21.06v4.29A27.19,27.19,0,0,1,281,545.9,27.69,27.69,0,0,1,295,549.41Z" transform="translate(-80.28 -510.8)" style="fill:#040006"/><path d="M401.77,610.9V518.6h21.06v92.3Z" transform="translate(-80.28 -510.8)" style="fill:#040006"/><path d="M455.53,595.3a15.62,15.62,0,0,0,8.25,2,15.23,15.23,0,0,0,6.57-1.17q2.4-1.17,2.4-3.25a3.37,3.37,0,0,0-1.56-2.73,10.65,10.65,0,0,0-4.55-1.69L453.9,586.2q-8.58-1.43-13.52-6.17t-4.94-12.81q0-9.88,7.67-15.47t20.41-5.59q11.7,0,20.28,5.2T493,568H474.31a6.34,6.34,0,0,0-3.19-5.27,14.35,14.35,0,0,0-7.47-1.75,11,11,0,0,0-5.92,1.3,3.8,3.8,0,0,0-2,3.25q0,3.77,6.5,4.94l11.83,2q19.63,3.64,19.63,19.11,0,10.4-8.25,15.86t-21.26,5.46q-13.26,0-21.77-5.85T433,589.19l18.72.13A8.14,8.14,0,0,0,455.53,595.3Z" transform="translate(-80.28 -510.8)" style="fill:#040006"/><path d="M538.4,610.9V518.6h21.06v92.3Z" transform="translate(-80.28 -510.8)" style="fill:#040006"/><path d="M576,534.59a11.14,11.14,0,0,1-3.58-8.45,11.35,11.35,0,0,1,3.58-8.52,12.82,12.82,0,0,1,17.49,0,11.26,11.26,0,0,1,3.64,8.52,11.06,11.06,0,0,1-3.64,8.45,13,13,0,0,1-17.49,0Zm-1.62,76.31v-63h21.06v63Z" transform="translate(-80.28 -510.8)" style="fill:#040006"/><path d="M662.16,565.92H639.93v45H618.87v-45H603.4V547.85h15.47v-7.54a33.28,33.28,0,0,1,3.51-15.67,24.68,24.68,0,0,1,9.81-10.27,28.61,28.61,0,0,1,14.37-3.58,65.61,65.61,0,0,1,16.77,2.34l-2.86,17.55a45.28,45.28,0,0,0-9.62-1.17,11.14,11.14,0,0,0-7.93,2.79,9.74,9.74,0,0,0-3,7.48v8.06h22.23Z" transform="translate(-80.28 -510.8)" style="fill:#040006"/><path d="M731.31,585.16l.13.39h-45a13.89,13.89,0,0,0,4.88,7.35,14.64,14.64,0,0,0,9.29,2.79,13.23,13.23,0,0,0,5.72-1.17,9.27,9.27,0,0,0,3.9-3.38h20.8a24.77,24.77,0,0,1-10.59,15.47q-8.38,5.72-20.08,5.72a37.46,37.46,0,0,1-18-4.23,30,30,0,0,1-12.16-11.77,33.81,33.81,0,0,1-4.29-17,34.29,34.29,0,0,1,4.16-17,29.55,29.55,0,0,1,11.83-11.7,35.78,35.78,0,0,1,17.55-4.23,34.07,34.07,0,0,1,16.45,4,29.46,29.46,0,0,1,11.57,11.12A31.85,31.85,0,0,1,731.7,578,47.44,47.44,0,0,1,731.31,585.16Zm-40.5-19.69a13.65,13.65,0,0,0-4.61,7.73h25.74a12.71,12.71,0,0,0-4.16-7.8,12.5,12.5,0,0,0-8.32-2.73A13.28,13.28,0,0,0,690.82,565.47Z" transform="translate(-80.28 -510.8)" style="fill:#040006"/><path d="M741.39,609.93a10.83,10.83,0,0,1-3.45-8.12,10.63,10.63,0,0,1,3.45-8.06,12.44,12.44,0,0,1,16.77,0,10.64,10.64,0,0,1,3.45,8.06,10.84,10.84,0,0,1-3.45,8.13,12.26,12.26,0,0,1-16.77,0Z" transform="translate(-80.28 -510.8)" style="fill:#040006"/><path d="M145.74,562.54a31.28,31.28,0,0,0-11.44-11.83,30.11,30.11,0,0,0-15.67-4.29,31.46,31.46,0,0,0-17.29,4.81v-3.38H80.28v92.3h21.06V607.39a31.44,31.44,0,0,0,17.29,4.81,29.75,29.75,0,0,0,15.67-4.35A31.76,31.76,0,0,0,145.74,596a35.14,35.14,0,0,0,0-33.41Zm-29.05,32A15.34,15.34,0,1,1,132,579.25,15.34,15.34,0,0,1,116.69,594.59Z" transform="translate(-80.28 -510.8)" style="fill:#040006"/><path d="M207.16,547.85v3.38a31.46,31.46,0,0,0-17.29-4.81,30.1,30.1,0,0,0-15.67,4.29,31.26,31.26,0,0,0-11.44,11.83,35.14,35.14,0,0,0,0,33.41,31.73,31.73,0,0,0,11.44,11.9,29.75,29.75,0,0,0,15.67,4.35,31.45,31.45,0,0,0,17.29-4.81v3.51h21.06v-63Zm-15.34,46.74a15.34,15.34,0,1,1,15.34-15.34A15.34,15.34,0,0,1,191.82,594.59Z" transform="translate(-80.28 -510.8)" style="fill:#040006"/><path d="M366.41,547.85v3.38a31.46,31.46,0,0,0-17.29-4.81,30.1,30.1,0,0,0-15.67,4.29A31.26,31.26,0,0,0,322,562.54,35.14,35.14,0,0,0,322,596a31.73,31.73,0,0,0,11.44,11.9,29.75,29.75,0,0,0,15.67,4.35,31.45,31.45,0,0,0,17.29-4.81v3.51h21.06v-63Zm-15.22,46.87a15.41,15.41,0,1,1,15.41-15.41A15.41,15.41,0,0,1,351.19,594.72Z" transform="translate(-80.28 -510.8)" style="fill:#040006"/></g></svg>